<svg xmlns="http://www.w3.org/2000/svg" xmlns:xlink="http://www.w3.org/1999/xlink" width="306" height="95.064" viewBox="0 0 306 95.064"><defs><style>.a{fill:url(#a);}.b,.e,.f,.h{fill-rule:evenodd;}.b{fill:url(#b);}.c{fill:#f07400;}.d{fill:#676767;stroke:#676767;stroke-miterlimit:10;stroke-width:0.25px;}.e{fill:url(#c);}.f{fill:url(#d);}.g{fill:#f77e0b;}.h{fill:#632398;}.i{fill:#fff;font-size:11px;font-family:HelveticaNeue-Light, Helvetica Neue;font-weight:300;letter-spacing:0.5em;}.j{letter-spacing:0.15em;}</style><linearGradient id="a" y1="0.5" x2="1" y2="0.5" gradientUnits="objectBoundingBox"><stop offset="0" stop-color="#632398"/><stop offset="0.459" stop-color="#632398"/><stop offset="0.479" stop-color="#702689"/><stop offset="0.518" stop-color="#952f62"/><stop offset="0.571" stop-color="#cf3e25"/><stop offset="0.578" stop-color="#d7411d"/><stop offset="0.705" stop-color="#d8441b"/><stop offset="0.815" stop-color="#dd4f15"/><stop offset="0.919" stop-color="#e6600a"/><stop offset="0.998" stop-color="#f07400"/></linearGradient><linearGradient id="b" y1="0.5" x2="1" y2="0.5" gradientUnits="objectBoundingBox"><stop offset="0" stop-color="#e72918"/><stop offset="0" stop-color="#d7411d"/><stop offset="0.202" stop-color="#e15710"/><stop offset="0.423" stop-color="#e96707"/><stop offset="0.671" stop-color="#ee7001"/><stop offset="0.999" stop-color="#f07400"/></linearGradient><linearGradient id="c" x1="23.802" y1="-0.815" x2="28.683" y2="-0.815" xlink:href="#b"/><linearGradient id="d" y1="0.5" x2="1" y2="0.5" gradientUnits="objectBoundingBox"><stop offset="0" stop-color="#e72918"/><stop offset="0" stop-color="#d7411d"/><stop offset="0.112" stop-color="#d94719"/><stop offset="1" stop-color="#f07400"/></linearGradient></defs><g transform="translate(-140 -95.271)"><g transform="translate(134.369 91.028)"><rect class="a" width="305.95" height="19.147" transform="translate(5.651 80.161)"/><path class="b" d="M29.638,58.177,47.95,16.925s2.28-5.907,5.653-7.639a14.678,14.678,0,0,1,4.7-1.435c2.551-.342,5.724-.062,6.405.66.459.489-6.5,15.174-7.389,17.3C56.741,27.2,37.338,69.451,37.338,69.451s-2.143-.289-4.274-3.872a18.154,18.154,0,0,1-1.383-2.656C30.72,60.652,29.846,58.622,29.638,58.177Z" transform="translate(15.23 2.118)"/><path class="c" d="M9.051,8.586s10.393-3.874,14.541,4.741,21.7,49.185,21.7,49.185,2.005,5.38,5.106,6.93l-7.84-.183s-6.291-.181-8.3-4.194S9.051,8.586,9.051,8.586Z" transform="translate(2.17 2.125)"/><line class="d" x2="306" transform="translate(5.631 4.368)"/><line class="d" x2="305.975" transform="translate(5.634 77.075)"/><path class="e" d="M82.564,69.328s11.073-.642,11.4-10.2S94,20.411,94,20.411s-.445-9.6,1.159-12.745a16.142,16.142,0,0,0-5.938,1.989c-2.206,1.518-6.127,5.116-6.346,9.6S82.564,69.328,82.564,69.328Z" transform="translate(48.806 2.092)"/><path class="f" d="M93.825,22.339S93.049,33.4,83.489,33.612s-29,.034-29,.034,5.181.136.489-.074l2.1-6s-7.142-5.08-2.659-5.243S93.825,22.339,93.825,22.339Z" transform="translate(30.014 11.348)"/><path class="g" d="M97.586,7.826S96.808,18.891,87.249,19.1s-29,.033-29,.033,5.183.137.489-.074l2.1-6S53.7,7.978,58.18,7.813,97.586,7.826,97.586,7.826Z" transform="translate(32.399 2.141)"/><path class="g" d="M52.314,69.247S63.4,68.762,63.854,59.21s.8-44.158.8-44.158,0-2.561-.087-7.258H58.508s-4.89.222-5.171,4.7S52.314,69.247,52.314,69.247Z" transform="translate(29.616 2.173)"/><g transform="translate(153.333 9.77)"><path class="h" d="M126.848,7.895c-14.647-1.206-24.437,4.8-25.542,17.916-1.657,19.626,31.8,15.983,29.929,26.655-.778,4.9-4.854,6.737-12.647,6.737-5.411,0-10.2-1.518-11.508-4.557-2.4-5.609-5.944-4.9-10.911-4.9-1.317,12.183,5.143,19.008,20.642,19.529,15.053.508,23.777-5.042,26.529-16.692,4.253-19.868-32.13-17.086-30.241-27.791,1.066-4.547,4.632-6.909,10.957-7.005,4.122,0,9.581.639,11.189,3.856,2.429,4.877,5.621,4.733,10.321,4.733C146.613,14.98,140.964,9.057,126.848,7.895Z" transform="translate(-96.002 -7.628)"/><path class="h" d="M160.66,58.175H140.478l7.167-40.62a8.151,8.151,0,0,0-1.837-6.866,8.144,8.144,0,0,0-6.441-3.007h-2.625L125.829,69.544h42.842l.265-1.5a8.407,8.407,0,0,0-8.277-9.868Z" transform="translate(-77.08 -7.667)"/><path class="h" d="M200.514,7.678a7.3,7.3,0,0,0-5.6,2.131l-21.67,23.354,2.747-15.613a8.14,8.14,0,0,0-1.835-6.866,8.734,8.734,0,0,0-.82-.86,8.11,8.11,0,0,0-5.626-2.151h-2.63L154.169,69.564h12.647c.16-.912.811-4.813,1.53-9.012.969-5.655,2.067-11.851,2.293-12.049a8.171,8.171,0,0,1,7.025-1.925,8.806,8.806,0,0,1,1.683.481,8.118,8.118,0,0,1,4.212,3.8l7.726,14.3a8.236,8.236,0,0,0,7.4,4.413h8.706L195.558,47.336c-2.329-4.1-4.323-9.775-11.411-10.151L212.512,7.678Z" transform="translate(-59.101 -7.673)"/></g><text class="i" transform="translate(40.182 93.938)"><tspan x="0" y="0">Global Services Pv</tspan><tspan class="j" y="0">t.</tspan><tspan y="0" xml:space="preserve"> Lt</tspan><tspan class="j" y="0">d.</tspan></text></g></g></svg>